<svg xmlns="http://www.w3.org/2000/svg" width="64" height="64" fill="none"><path fill="#8063F5" d="M0 32C0 8.727 8.727 0 32 0s32 8.727 32 32-8.727 32-32 32S0 55.273 0 32Z"/><rect width="38" height="28" fill="#fff" rx="8" transform="matrix(1 0 0 -1 13 46)"/><path fill="#6345E6" d="M24 40a7.562 7.562 0 0 0 6-2.938 6.112 6.112 0 0 0-2.08-3.628 6.08 6.08 0 0 0-7.84 0A6.112 6.112 0 0 0 18 37.062 7.562 7.562 0 0 0 24 40Zm0-10a3 3 0 1 0 0-6 3 3 0 0 0 0 6Z"/><rect width="10" height="4" x="34" y="34" fill="#6345E6" rx="2"/><rect width="10" height="4" x="34" y="26" fill="#6345E6" rx="2"/></svg>