<svg width="64" height="64" viewBox="0 0 64 64" fill="none" xmlns="http://www.w3.org/2000/svg">
<path d="M0 32C0 8.72727 8.72727 0 32 0C55.2727 0 64 8.72727 64 32C64 55.2727 55.2727 64 32 64C8.72727 64 0 55.2727 0 32Z" fill="#8063F5"/>
<rect width="38" height="28" rx="8" transform="matrix(1 0 0 -1 13 46)" fill="white"/>
<path d="M24 40C25.1574 40.0022 26.2999 39.7385 27.3399 39.2293C28.3799 38.72 29.2899 37.9786 30 37.062C29.7544 35.6447 29.0179 34.3598 27.9203 33.4338C26.8226 32.5078 25.4343 32 24 32C22.5657 32 21.1774 32.5078 20.0797 33.4338C18.9821 34.3598 18.2456 35.6447 18 37.062C18.7101 37.9786 19.6201 38.72 20.6601 39.2293C21.7001 39.7385 22.8426 40.0022 24 40V40Z" fill="#6345E6"/>
<path d="M24 30C25.6569 30 27 28.6569 27 27C27 25.3431 25.6569 24 24 24C22.3431 24 21 25.3431 21 27C21 28.6569 22.3431 30 24 30Z" fill="#6345E6"/>
<rect x="34" y="34" width="10" height="4" rx="2" fill="#6345E6"/>
<rect x="34" y="26" width="10" height="4" rx="2" fill="#6345E6"/>
</svg>
