<svg width="64" height="48" viewBox="0 0 64 48" fill="none" xmlns="http://www.w3.org/2000/svg">
<path fill-rule="evenodd" clip-rule="evenodd" d="M0 39.5789C0 43.9972 3.58172 47.5789 8 47.5789H56C60.4183 47.5789 64 43.9972 64 39.5789V8.42106C64 4.00278 60.4183 0.421051 56 0.421051H8C3.58172 0.421051 0 4.00277 0 8.42105V39.5789ZM18.5263 37.4737C20.4756 37.4773 22.3998 37.0333 24.1514 36.1756C25.9031 35.3179 27.4356 34.0693 28.6316 32.5255C28.218 30.1385 26.9775 27.9745 25.1289 26.4148C23.2803 24.8552 20.9421 24 18.5263 24C16.1106 24 13.7724 24.8552 11.9238 26.4148C10.0751 27.9745 8.83472 30.1385 8.42109 32.5255C9.61706 34.0693 11.1496 35.3179 12.9013 36.1756C14.6529 37.0333 16.5771 37.4773 18.5263 37.4737ZM23.579 15.5789C23.579 18.3694 21.3168 20.6316 18.5263 20.6316C15.7359 20.6316 13.4737 18.3694 13.4737 15.5789C13.4737 12.7885 15.7359 10.5263 18.5263 10.5263C21.3168 10.5263 23.579 12.7885 23.579 15.5789ZM35.3684 30.7368C35.3684 28.8765 36.8765 27.3684 38.7369 27.3684H48.8421C50.7024 27.3684 52.2105 28.8765 52.2105 30.7368C52.2105 32.5972 50.7024 34.1052 48.8421 34.1052H38.7369C36.8765 34.1052 35.3684 32.5972 35.3684 30.7368ZM38.7368 13.8947C36.8765 13.8947 35.3684 15.4028 35.3684 17.2631C35.3684 19.1235 36.8765 20.6316 38.7368 20.6316H48.8421C50.7024 20.6316 52.2105 19.1235 52.2105 17.2631C52.2105 15.4028 50.7024 13.8947 48.8421 13.8947H38.7368Z" fill="white"/>
</svg>
